<?xml version="1.0" encoding="UTF-8"?>
<svg xmlns="http://www.w3.org/2000/svg" width="1420" height="356" viewBox="0 0 710 178" fill="#1e2129"><rect width="710" height="178" fill="#ffffff" /><defs><path id="g-82" d="M412 1047Q412 1047 422.0 1065.5Q432 1084 447.5 1110.5Q463 1137 482.0 1163.5Q501 1190 520.0 1208.0Q539 1226 555 1226Q569 1226 578.5 1210.0Q588 1194 592 1156Q573 1088 542.5 990.0Q512 892 474.0 772.5Q436 653 395.0 520.5Q354 388 313.5 249.5Q273 111 237 -25L291 -16Q339 113 393.5 246.5Q448 380 506.5 509.5Q565 639 627.5 755.0Q690 871 755.0 966.5Q820 1062 886.0 1129.0Q952 1196 1018 1225Q1074 1250 1124.5 1261.5Q1175 1273 1219 1273Q1315 1273 1381.5 1225.5Q1448 1178 1482.5 1097.0Q1517 1016 1517 915Q1517 827 1489.5 730.5Q1462 634 1405.0 537.5Q1348 441 1259 353Q1173 268 1067.0 203.5Q961 139 845.0 91.5Q729 44 610.5 11.5Q492 -21 381 -42Q512 -54 646.0 -74.0Q780 -94 906.0 -120.5Q1032 -147 1141.0 -179.0Q1250 -211 1332.5 -246.5Q1415 -282 1461.5 -320.0Q1508 -358 1508 -398Q1508 -408 1505 -417Q1494 -435 1476 -435Q1461 -435 1451 -417Q1433 -363 1373.5 -318.5Q1314 -274 1224.5 -237.5Q1135 -201 1026.0 -173.0Q917 -145 797.0 -125.0Q677 -105 557.5 -93.0Q438 -81 328 -77H326Q274 -221 222.5 -349.0Q171 -477 138 -576Q101 -686 76.5 -751.0Q52 -816 34 -816Q14 -813 14 -788V-781Q17 -749 35.5 -664.5Q54 -580 84.5 -456.5Q115 -333 153 -187Q161 -159 168.0 -130.0Q175 -101 183 -72Q91 -83 17.5 -88.5Q-56 -94 -101.5 -95.0Q-147 -96 -157 -96H-177L-180 -79V-73Q-180 -46 -142 -34Q-119 -26 -78.5 -22.0Q-38 -18 15 -18H34Q70 -18 110.5 -20.0Q151 -22 195 -25Q231 112 268.5 248.5Q306 385 343.0 514.5Q380 644 413.0 760.0Q446 876 473.5 972.0Q501 1068 520 1137Q526 1158 526 1162Q526 1164 525 1164Q523 1164 516.0 1150.0Q509 1136 500.0 1116.0Q491 1096 482.0 1075.5Q473 1055 467.5 1041.0Q462 1027 462 1027Q453 1016 440 1016Q429 1016 420.5 1024.5Q412 1033 412 1047ZM226 -68Q218 -101 209.0 -133.0Q200 -165 192 -197Q166 -300 142.5 -391.5Q119 -483 102 -558Q134 -461 177.0 -335.5Q220 -210 271 -71ZM1052 1166Q978 1133 903.0 1051.5Q828 970 755.0 852.5Q682 735 612.5 594.0Q543 453 478.5 300.0Q414 147 357 -5Q468 15 585.5 45.5Q703 76 818.0 122.0Q933 168 1038.0 232.0Q1143 296 1230 382Q1313 464 1367.5 556.0Q1422 648 1449.0 740.5Q1476 833 1476 915Q1476 999 1448.5 1066.0Q1421 1133 1367.0 1171.5Q1313 1210 1233 1210Q1194 1210 1148.5 1199.5Q1103 1189 1052 1166Z" /><path id="g-68" d="M212 555Q212 651 227.5 723.5Q243 796 262.5 846.0Q282 896 293 923Q298 935 302.5 943.5Q307 952 311 956Q317 964 327.0 967.0Q337 970 347 970Q360 970 371.0 965.0Q382 960 386 952Q389 945 389 934Q389 931 389.0 928.0Q389 925 388 921Q381 878 364.0 820.0Q347 762 327.0 694.5Q307 627 287.5 555.5Q268 484 255 414Q297 520 344.5 628.0Q392 736 444.5 838.0Q497 940 555.0 1029.0Q613 1118 675.5 1186.0Q738 1254 805.5 1294.0Q873 1334 944 1338H958Q1018 1338 1057.5 1307.0Q1097 1276 1119.5 1223.5Q1142 1171 1151.0 1105.0Q1160 1039 1160 970Q1160 904 1154.0 840.0Q1148 776 1140.5 723.0Q1133 670 1126 636Q1101 505 1059.0 367.0Q1017 229 961 97Q1057 138 1139.5 171.5Q1222 205 1284.5 229.0Q1347 253 1382.0 265.5Q1417 278 1418 278Q1423 279 1426.5 279.5Q1430 280 1433 280Q1454 280 1454 265Q1454 258 1447.5 249.5Q1441 241 1430 237Q1429 237 1391.5 225.5Q1354 214 1287.5 191.5Q1221 169 1133.0 136.0Q1045 103 943 59Q934 40 922.5 13.5Q911 -13 901 -32Q836 -165 756.0 -267.0Q676 -369 590.0 -442.5Q504 -516 420.0 -563.0Q336 -610 261.0 -632.5Q186 -655 128 -655Q70 -655 35.5 -633.0Q1 -611 1 -571Q1 -527 48.0 -462.0Q95 -397 200.5 -314.5Q306 -232 480.0 -134.0Q654 -36 907 74Q969 212 1014.0 358.5Q1059 505 1086 644Q1091 666 1096.0 708.5Q1101 751 1104.5 806.0Q1108 861 1108 921Q1108 988 1101.5 1054.0Q1095 1120 1079.0 1174.0Q1063 1228 1034.5 1260.5Q1006 1293 962 1293H956Q876 1288 801.0 1236.0Q726 1184 656.5 1096.5Q587 1009 524.5 898.5Q462 788 407.0 665.5Q352 543 305.0 419.5Q258 296 221 185Q219 173 211.0 152.0Q203 131 201 120Q184 36 161.0 -30.5Q138 -97 118.0 -141.0Q98 -185 87 -202Q80 -213 73 -214Q70 -215 65 -215Q48 -215 48 -179Q48 -149 60 -100Q71 -56 89.0 6.0Q107 68 131 142Q135 154 138.5 165.5Q142 177 146 190Q163 270 179.5 356.5Q196 443 212 528ZM865 -15Q870 -6 875.0 11.0Q880 28 884 37Q650 -65 489.0 -154.0Q328 -243 230.5 -317.5Q133 -392 89.5 -448.5Q46 -505 46 -543Q46 -575 72.5 -591.5Q99 -608 145 -608Q195 -608 264.0 -586.5Q333 -565 411.0 -520.0Q489 -475 570.0 -405.0Q651 -335 727.0 -238.0Q803 -141 865 -15Z" /><path id="g-107" d="M96 361Q102 365 104 367L115 374Q141 394 167.0 412.5Q193 431 218 447Q281 489 319.0 508.0Q357 527 396 528Q420 527 420 503Q420 487 408 467Q404 468 399.5 468.0Q395 468 390 468Q353 468 313.0 452.0Q273 436 240 413Q212 395 176.0 369.0Q140 343 104.5 316.0Q69 289 42 268Q29 234 19.0 207.0Q9 180 -3 146Q50 142 98.0 139.0Q146 136 191 136Q270 136 344.0 144.5Q418 153 495.0 172.0Q572 191 659 221Q666 225 672 225Q679 225 682.5 219.0Q686 213 686 205Q686 197 682.0 188.5Q678 180 670 175Q606 153 530.0 140.5Q454 128 373.0 123.0Q292 118 211 118Q153 118 97.0 120.0Q41 122 -9 124Q-23 85 -39.5 29.0Q-56 -27 -73.5 -91.5Q-91 -156 -108.0 -220.0Q-125 -284 -141.5 -340.5Q-158 -397 -173 -436Q-176 -443 -188.0 -447.5Q-200 -452 -212 -452Q-222 -452 -230.0 -447.5Q-238 -443 -238 -432Q-238 -424 -234 -416L-218 -370Q-196 -266 -153.5 -137.0Q-111 -8 -56 130Q-78 136 -87 145Q-94 152 -94 162Q-94 182 -72.0 210.5Q-50 239 -13 271Q-2 282 11 292Q59 403 111.0 512.5Q163 622 215.5 723.5Q268 825 318.5 913.5Q369 1002 414 1071Q448 1126 469 1126Q474 1126 478 1122Q483 1117 483 1107Q477 1077 471.0 1066.5Q465 1056 459.0 1055.0Q453 1054 445.5 1054.0Q438 1054 428 1045Q372 959 311.5 845.0Q251 731 190.0 602.0Q129 473 71 342ZM-46 156Q-37 179 -26 205Q-39 192 -47.5 184.0Q-56 176 -56 174L-55 173Q-53 172 -51.5 166.5Q-50 161 -46 156Z" /><path id="g-105" d="M91 312Q91 312 81.5 293.0Q72 274 59.0 245.0Q46 216 36.5 184.0Q27 152 27 126Q27 92 47 79Q53 74 70 74Q95 74 137.5 84.5Q180 95 232.0 112.0Q284 129 339.5 149.5Q395 170 446.5 190.0Q498 210 539.5 227.0Q581 244 605.5 254.5Q630 265 630 265Q641 273 652 273Q666 273 674.5 265.0Q683 257 683 249Q683 245 681 243Q681 243 655.0 232.0Q629 221 585.0 203.0Q541 185 485.5 164.0Q430 143 369.5 121.5Q309 100 249.5 82.0Q190 64 139.0 53.0Q88 42 52 42Q33 42 19.5 45.5Q6 49 -1 57Q-22 71 -30.5 95.0Q-39 119 -39 147Q-39 182 -29.5 219.0Q-20 256 -8.0 287.0Q4 318 13 333Q19 346 29.0 351.5Q39 357 50 357Q66 357 79.0 347.0Q92 337 92 321Q92 315 91 312ZM127 546Q148 538 148 510Q148 498 144 489Q139 473 127.5 463.5Q116 454 104 454Q98 454 95 455Q74 463 74 491Q74 503 78 512Q84 528 95.5 537.5Q107 547 119 547Q124 547 127 546Z" /><path id="g-97" d="M197 248Q187 238 180.0 231.5Q173 225 160 213Q120 176 79.5 139.0Q39 102 4.5 78.0Q-30 54 -52 54Q-53 54 -54.0 54.5Q-55 55 -57 55Q-71 58 -83 71Q-94 85 -94 107Q-94 111 -94.0 114.5Q-94 118 -93 122Q-90 149 -75 178Q-60 210 -35.5 243.0Q-11 276 21.5 302.5Q54 329 93 340Q108 345 121.5 346.5Q135 348 147 348Q170 348 187.5 341.0Q205 334 216 323Q239 342 262.5 357.5Q286 373 300 373Q304 373 308 371Q328 368 328 334Q328 296 303 233Q287 189 287 158Q287 119 309.5 103.0Q332 87 369 87Q407 87 455.5 101.0Q504 115 554.0 137.0Q604 159 648.5 183.5Q693 208 725.0 230.0Q757 252 767 265Q775 281 786 281Q801 281 801 262Q801 252 794 244Q790 239 759.5 220.0Q729 201 680.5 175.5Q632 150 575.0 126.0Q518 102 461.5 86.0Q405 70 358 70Q310 70 279.5 93.0Q249 116 249 172Q249 203 259 243Q264 272 271.0 295.0Q278 318 278 324V325Q278 325 267.5 315.5Q257 306 240 289Q243 280 243.5 272.0Q244 264 244 259V255Q231 236 212 236Q206 236 200 239ZM159 274Q153 279 143 279Q125 279 102.5 262.0Q80 245 59.0 221.5Q38 198 24.5 177.0Q11 156 11 147Q11 142 17 142Q31 142 71.5 176.5Q112 211 159 274Z" /><path id="g-104" d="M82 386Q107 425 138.5 478.5Q170 532 203.5 592.5Q237 653 268.5 714.5Q300 776 325.0 831.0Q350 886 364.5 929.5Q379 973 379 996Q379 1008 374 1015Q371 1014 360.0 1006.5Q349 999 336 981Q319 958 296.5 912.0Q274 866 248.5 807.5Q223 749 197.5 686.0Q172 623 149.0 563.5Q126 504 108.5 457.5Q91 411 82 386ZM412 1043Q426 1029 426 998Q426 959 406.5 901.5Q387 844 355.0 776.0Q323 708 284.5 637.5Q246 567 207.0 502.0Q168 437 134.5 385.5Q101 334 80.0 304.0Q59 274 56 274L51 260Q32 203 16.5 154.5Q1 106 -13 53Q-5 66 18.0 98.0Q41 130 72.5 169.5Q104 209 140.0 246.5Q176 284 210.5 308.5Q245 333 273 333Q302 333 318 303Q320 300 320 289Q320 273 315.5 246.0Q311 219 306.5 189.0Q302 159 302 133Q302 115 305.5 101.5Q309 88 318 81Q326 76 337 76Q357 76 385.5 88.5Q414 101 445 116Q498 142 554.0 182.5Q610 223 657 267Q663 273 670 273Q678 273 683.5 267.0Q689 261 689 253Q689 244 684 238Q635 192 576.5 149.0Q518 106 463 80Q432 65 403.5 56.5Q375 48 351 48Q323 48 301 62Q281 76 274.0 101.5Q267 127 267 156Q267 194 273.5 231.0Q280 268 280 286V290Q279 293 274 293Q263 293 236.0 270.0Q209 247 174.0 209.5Q139 172 102.0 127.5Q65 83 32.0 38.5Q-1 -6 -23.5 -41.5Q-46 -77 -51 -97Q-55 -116 -69 -116Q-77 -116 -83.5 -109.5Q-90 -103 -90 -94V-89Q-85 -26 -69.0 45.0Q-53 116 -22 211Q-21 214 -20.5 216.5Q-20 219 -20 222Q-20 230 -21.5 238.0Q-23 246 -23 255Q-23 266 -20 276Q-15 290 -0.5 306.0Q14 322 18 331Q51 419 88.5 515.0Q126 611 164.5 703.0Q203 795 240.0 870.0Q277 945 309 991Q316 1001 329.0 1015.5Q342 1030 358.0 1041.5Q374 1053 389 1053Q402 1053 412 1043Z" /><path id="g-99" d="M152 302Q156 308 166.0 320.0Q176 332 185.0 345.5Q194 359 194 366Q194 371 189 371Q169 362 138.0 334.5Q107 307 76.0 270.0Q45 233 24.0 193.5Q3 154 3 120Q3 113 4.0 106.0Q5 99 8 92Q13 79 23.0 69.5Q33 60 49 55Q58 51 76 51Q94 51 116.5 55.0Q139 59 161 65Q221 81 298.5 126.5Q376 172 493 260Q502 266 512 266Q522 266 529.0 261.5Q536 257 536 250Q536 241 527 235Q406 144 316.0 96.0Q226 48 163 31Q142 25 123.5 22.5Q105 20 89 20Q61 20 41 27Q16 35 0.0 51.0Q-16 67 -24 87Q-35 115 -35 145Q-35 190 -15.0 237.5Q5 285 38.5 325.5Q72 366 113.5 390.5Q155 415 198 415H208Q213 415 218.5 414.0Q224 413 229 411Q244 404 250.0 390.5Q256 377 256 362Q256 343 250.0 323.5Q244 304 238.0 291.5Q232 279 231 278Q222 271 205 271Q188 271 170.0 279.0Q152 287 152 302Z" /><path id="g-116" d="M272 798Q287 816 308.0 849.0Q329 882 352.5 922.5Q376 963 397.5 1004.0Q419 1045 436.0 1079.5Q453 1114 460 1135Q469 1162 469 1168Q469 1169 468.5 1169.5Q468 1170 468 1170Q464 1170 448.5 1143.5Q433 1117 411.0 1075.5Q389 1034 365.5 987.0Q342 940 321.0 898.0Q300 856 286.5 828.0Q273 800 272 798ZM-487 659Q-464 657 -430.5 656.0Q-397 655 -355 655Q-267 655 -139.0 661.0Q-11 667 156 680Q205 794 253.5 891.5Q302 989 346.0 1062.5Q390 1136 425.5 1176.5Q461 1217 485 1217H487Q514 1207 514 1169Q514 1135 493.5 1085.0Q473 1035 440.5 978.0Q408 921 371.0 864.5Q334 808 301.0 761.0Q268 714 246 684Q265 685 311.0 689.0Q357 693 421.5 698.5Q486 704 559.0 710.0Q632 716 706.0 722.0Q780 728 845.0 732.5Q910 737 958.5 740.0Q1007 743 1028 743Q1040 743 1042 742Q1048 733 1048 726Q1048 713 1035.5 701.5Q1023 690 1006.5 681.0Q990 672 977.5 667.5Q965 663 965 663Q959 660 953 660Q943 660 935.5 668.0Q928 676 928 686Q928 692 931 698Q931 698 896.0 696.5Q861 695 801.5 692.0Q742 689 668.0 685.5Q594 682 515.5 677.5Q437 673 363.0 668.5Q289 664 231 659Q214 635 187.5 583.5Q161 532 129.0 461.5Q97 391 64.5 308.5Q32 226 1.5 138.5Q-29 51 -53.5 -35.0Q-78 -121 -92.0 -197.5Q-106 -274 -106 -334Q-106 -395 -87.5 -433.5Q-69 -472 -27 -476Q-18 -477 -14.0 -482.0Q-10 -487 -10 -493Q-10 -501 -16.0 -508.5Q-22 -516 -30 -516Q-34 -516 -36 -515Q-79 -496 -98.5 -442.5Q-118 -389 -118 -310Q-118 -221 -97.0 -106.5Q-76 8 -39.0 136.5Q-2 265 45.0 397.0Q92 529 144 652Q63 652 -26.5 650.0Q-116 648 -202.5 646.0Q-289 644 -362 644Q-447 644 -503.0 648.5Q-559 653 -564 664Q-566 668 -566 670Q-566 680 -553.5 684.0Q-541 688 -531 688H-525Q-514 688 -500.5 682.0Q-487 676 -487 659Z" /></defs><g transform="scale(0.072,-0.072)" stroke="#ffffff" stroke-width="13.888889" paint-order="stroke fill"><use href="#g-82" x="347" y="-1472" /><use href="#g-97" x="1708" y="-1472" /><use href="#g-99" x="2488" y="-1472" /><use href="#g-104" x="2984" y="-1472" /><use href="#g-105" x="3627" y="-1472" /><use href="#g-116" x="4272" y="-1472" /><use href="#g-68" x="4936" y="-1472" /><use href="#g-104" x="6355" y="-1472" /><use href="#g-97" x="6998" y="-1472" /><use href="#g-107" x="7778" y="-1472" /><use href="#g-97" x="8459" y="-1472" /></g></svg>